<svg width="12" height="17" viewBox="0 0 12 17" fill="none" xmlns="http://www.w3.org/2000/svg">
<path d="M10.5775 10.8392C10.3332 13.2355 8.56107 15.6317 5.44787 15.6317C0.167124 15.6317 -0.912271 9.92657 2.49879 7.00531C5.23601 4.66104 5.49306 4.35253 5.30955 1.45114C5.30533 1.3844 5.3863 1.34727 5.43201 1.39609C7.16657 3.24846 7.59682 5.15585 6.72274 9.27539C6.71113 9.33013 6.7631 9.37796 6.81496 9.35692C8.09227 8.8388 9.08087 7.13652 9.17171 5.76903C9.17619 5.70156 9.26072 5.67285 9.29949 5.72825C10.0398 6.78622 10.7489 9.15863 10.5775 10.8392Z" fill="#FF4201"/>
<path fill-rule="evenodd" clip-rule="evenodd" d="M4.77144 1.48526C4.73767 0.951314 5.40865 0.582478 5.82552 1.02766C6.74839 2.0132 7.34966 3.04498 7.58658 4.39226C7.77525 5.46518 7.72764 6.71025 7.46757 8.25274C7.65298 8.06202 7.82683 7.83966 7.98254 7.59342C8.36097 6.995 8.5952 6.31314 8.63371 5.73338C8.65168 5.46289 8.83621 5.26188 9.05496 5.19026C9.28145 5.11611 9.57065 5.17552 9.74119 5.41923C10.1609 6.01906 10.5441 6.94283 10.8014 7.91197C11.0596 8.88401 11.2084 9.96653 11.1139 10.894C10.8487 13.4942 8.90379 16.1709 5.44784 16.1709C2.57954 16.1709 0.767387 14.5968 0.194835 12.5599C-0.367611 10.559 0.288958 8.18804 2.14805 6.5959C3.54817 5.39678 4.19745 4.80694 4.52171 4.18726C4.82637 3.60505 4.86403 2.94904 4.77144 1.48526L5.30951 1.45123L4.77144 1.48526ZM5.89168 2.87076C5.87198 3.56827 5.7633 4.14028 5.47711 4.6872C5.03442 5.53319 4.18656 6.26974 2.84946 7.41489L2.84945 7.41489C1.29749 8.74401 0.788223 10.6862 1.2329 12.2681C1.66747 13.8141 3.03539 15.0926 5.44784 15.0926C8.21829 15.0926 9.81756 12.9769 10.0411 10.7846C10.1179 10.0315 9.99794 9.08753 9.75927 8.18871C9.65859 7.80958 9.53987 7.44995 9.41225 7.12639C9.27683 7.48855 9.10095 7.84232 8.8939 8.16974C8.43801 8.89067 7.79375 9.54178 7.01758 9.85662C6.51752 10.0595 6.10486 9.58981 6.1953 9.16358C6.62713 7.12836 6.72195 5.70141 6.52458 4.57901C6.41272 3.9429 6.20451 3.39092 5.89168 2.87076Z" fill="#FF4201"/>
</svg>
